# xmcd CD database file
#
# Track frame offsets:
#	150
#	11637
#	23242
#	34613
#	48210
#	58522
#	72813
#	84549
#	100198
#	112601
#	126519
#	140098
#	153835
#	166602
#	179809
#
# Disc length: 2571 seconds
#
# Revision: 3
# Processed by: cddbd v1.5.2PL0 Copyright (c) Steve Scherf et al.
# Submitted via: CDex 1.70beta2
#
DISCID=bc0a090f
DTITLE=B.B. KING - Quadromania - Everyday I Heve The Blues(Jazz Edition)
DYEAR=2005
DGENRE=Blues
TTITLE0=She's A Mean Woman
TTITLE1=Hard Workin' Woman
TTITLE2=Pray For You
TTITLE3=Three O'Clock Blues
TTITLE4=That Ain't The Way To Do It
TTITLE5=She Don't Move Me No More
TTITLE6=Shake It Up And Go
TTITLE7=My Own Fault, Darlin'
TTITLE8=I Gotta Find My Baby
TTITLE9=You Know I Love You
TTITLE10=Woke Up This Morning(My Baby's Gone)
TTITLE11=You Upset Me Baby
TTITLE12=Please Love Me
TTITLE13=Blind Love
TTITLE14=Woke Up This Morning
EXTD=YEAR: 2005
EXTT0=
EXTT1=
EXTT2=
EXTT3=
EXTT4=
EXTT5=
EXTT6=
EXTT7=
EXTT8=
EXTT9=
EXTT10=
EXTT11=
EXTT12=
EXTT13=
EXTT14=
PLAYORDER=
